<svg width="905" height="742" viewBox="0 0 905 742" fill="none" xmlns="http://www.w3.org/2000/svg">
<g clip-path="url(#clip0)">
<path d="M686.055 724.756L670.765 724.755L663.491 665.781L686.057 665.782L686.055 724.756Z" fill="#FFB6B6"/>
<path d="M689.954 739.577L640.654 739.575V738.952C640.654 733.862 642.676 728.982 646.274 725.383C649.873 721.785 654.753 719.763 659.843 719.763H659.844L689.955 719.764L689.954 739.577Z" fill="white"/>
<path d="M801.699 711.547L787.146 716.236L762.135 662.335L783.614 655.414L801.699 711.547Z" fill="#FFB6B6"/>
<path d="M809.956 724.458L763.032 739.577L762.84 738.983C761.28 734.139 761.707 728.874 764.029 724.345C766.35 719.816 770.375 716.395 775.219 714.834L775.22 714.834L803.88 705.6L809.956 724.458Z" fill="white"/>
<path d="M809.348 523.402C819.892 523.402 828.44 514.854 828.44 504.31C828.44 493.766 819.892 485.218 809.348 485.218C798.804 485.218 790.256 493.766 790.256 504.31C790.256 514.854 798.804 523.402 809.348 523.402Z" fill="#DD4142"/>
<path d="M834.348 539.143C834.004 539.329 833.664 539.502 833.323 539.675L793.013 464.83C793.345 464.641 793.677 464.452 794.021 464.267C803.95 458.922 815.595 457.74 826.396 460.981C837.196 464.221 846.268 471.619 851.615 481.546C856.961 491.474 858.146 503.119 854.908 513.92C851.67 524.722 844.274 533.794 834.348 539.143H834.348Z" fill="white"/>
<path d="M797.127 501.119L791.493 422.951L792.564 396.861L770.604 401.747L778.693 504.173C777.777 506.061 777.398 508.165 777.597 510.255C777.796 512.344 778.565 514.338 779.821 516.02C781.077 517.701 782.772 519.005 784.719 519.788C786.666 520.572 788.791 520.804 790.862 520.461C792.932 520.118 794.868 519.213 796.459 517.843C798.049 516.474 799.233 514.693 799.879 512.697C800.526 510.7 800.612 508.564 800.126 506.522C799.641 504.48 798.603 502.611 797.127 501.119V501.119Z" fill="#FFB7B7"/>
<path d="M697.753 432.217L696.357 406.027L682.263 394.576L680.317 419.748L628.434 479.733C626.275 480.078 624.26 481.036 622.628 482.491C620.996 483.946 619.815 485.838 619.224 487.943C618.634 490.048 618.659 492.279 619.296 494.37C619.934 496.462 621.157 498.327 622.821 499.745C624.485 501.163 626.521 502.075 628.687 502.372C630.853 502.67 633.059 502.34 635.044 501.423C637.029 500.506 638.71 499.04 639.887 497.198C641.065 495.355 641.69 493.214 641.689 491.028C641.689 490.874 641.672 490.724 641.666 490.571L697.753 432.217Z" fill="#FFB7B7"/>
<path d="M700.28 423.833L656 480L641 464L672 419L691.423 333.678C691.94 332.583 692.672 331.603 693.575 330.798C694.479 329.992 695.536 329.377 696.683 328.989C697.811 328.602 699.005 328.447 700.194 328.533C701.383 328.618 702.542 328.942 703.603 329.486L703.854 329.614L700.28 423.833Z" fill="#DD4142"/>
<path d="M776.388 477L762.322 379.226L762.345 379.135L776.79 322.348L778.144 322.191C782.047 321.76 785.97 322.801 789.146 325.11C792.322 327.419 794.523 330.83 795.317 334.675L796.388 480L776.388 477Z" fill="#DD4142"/>
<path d="M780.826 307.015H707.716V273.984C707.714 269.181 708.657 264.426 710.493 259.989C712.329 255.551 715.021 251.519 718.416 248.123C721.811 244.727 725.841 242.032 730.278 240.194C734.714 238.356 739.469 237.41 744.271 237.41C749.073 237.41 753.828 238.356 758.264 240.194C762.701 242.032 766.731 244.727 770.126 248.123C773.521 251.519 776.213 255.551 778.049 259.989C779.885 264.426 780.828 269.181 780.826 273.984V307.015Z" fill="#DD4142"/>
<path d="M769.646 292.46C777.561 277.981 772.24 259.826 757.76 251.911C743.281 243.996 725.126 249.317 717.211 263.797C709.296 278.276 714.618 296.43 729.097 304.346C743.576 312.261 761.731 306.939 769.646 292.46Z" fill="#FFB7B7"/>
<path d="M757.853 252.779C768.838 252.779 777.743 243.874 777.743 232.89C777.743 221.905 768.838 213 757.853 213C746.869 213 737.964 221.905 737.964 232.89C737.964 243.874 746.869 252.779 757.853 252.779Z" fill="#DD4142"/>
<path d="M789 279.709H711.24V279.269C711.24 259.112 728.681 242.714 750.12 242.714C771.559 242.714 789 259.112 789 279.269V279.709Z" fill="#DD4142"/>
<path d="M689.748 695.28L660.858 693.217L660.819 692.794C648.158 554.581 655.342 463.295 681.043 435.73L688.295 422.164L684.324 399.333C673.721 371.404 691.53 350.974 692.877 349.489L698.617 332.267C699.014 331.081 699.744 330.034 700.721 329.251C701.697 328.469 702.878 327.985 704.122 327.856L782.137 319.877L782.188 320.375L782.137 319.877C783.001 319.789 783.873 319.875 784.703 320.129C785.533 320.383 786.304 320.801 786.97 321.358C787.636 321.915 788.183 322.6 788.58 323.372C788.977 324.144 789.215 324.988 789.28 325.853L789.287 325.945L789.261 326.034L760.823 421.802L763.316 454.209L796.879 686.139L767.973 692.333L767.839 691.894L714.501 517.063L689.748 695.28Z" fill="white"/>
<path d="M617 557.5H7C5.2767 557.498 3.62455 556.813 2.40599 555.594C1.18743 554.375 0.501972 552.723 0.5 551V7C0.501972 5.2767 1.18743 3.62454 2.40599 2.40598C3.62455 1.18742 5.2767 0.501972 7 0.5H617C618.723 0.501993 620.375 1.18745 621.594 2.40601C622.813 3.62456 623.498 5.2767 623.5 7V551C623.498 552.723 622.813 554.375 621.594 555.594C620.375 556.813 618.723 557.498 617 557.5Z" fill="white"/>
<path d="M208.692 24.4308V165.016H208.406C189.763 165.016 171.884 157.61 158.702 144.427C145.519 131.245 138.114 113.366 138.114 94.7232C138.114 76.0805 145.519 58.2013 158.702 45.0189C171.884 31.8366 189.763 24.4308 208.406 24.4308H208.692Z" fill="#DD4142"/>
<path d="M192.785 56.1156V133.331H192.628C182.389 133.331 172.569 129.263 165.328 122.023C158.088 114.782 154.021 104.963 154.021 94.7232C154.021 84.4838 158.088 74.6638 165.328 67.4235C172.569 60.1832 182.389 56.1156 192.628 56.1156H192.785Z" fill="white"/>
<path d="M312.543 281H100.146V93.723H138.114V95.723H102.146V279H312.543V281Z" fill="#111111"/>
<path d="M341.18 328.163C351.724 328.163 360.272 319.616 360.272 309.072C360.272 298.527 351.724 289.98 341.18 289.98C330.636 289.98 322.089 298.527 322.089 309.072C322.089 319.616 330.636 328.163 341.18 328.163Z" fill="#DD4142"/>
<path d="M519.081 513.006C529.625 513.006 538.173 504.459 538.173 493.915C538.173 483.37 529.625 474.823 519.081 474.823C508.537 474.823 499.989 483.37 499.989 493.915C499.989 504.459 508.537 513.006 519.081 513.006Z" fill="#111111"/>
<path d="M100.798 297.79C111.342 297.79 119.89 289.242 119.89 278.698C119.89 268.154 111.342 259.607 100.798 259.607C90.2537 259.607 81.7061 268.154 81.7061 278.698C81.7061 289.242 90.2537 297.79 100.798 297.79Z" fill="#DD4142"/>
<path d="M312.543 280.434H360.272V232.705H264.813V328.163H312.543V280.434Z" fill="#111111"/>
<path d="M624.086 40.0513H414.944V66.0855H624.086V40.0513Z" fill="#E4E4E4"/>
<path d="M624.086 96.4587H414.944V122.493H624.086V96.4587Z" fill="#E4E4E4"/>
<path d="M561.603 185.843C561.603 186.233 561.595 186.615 561.586 186.997H476.576C476.567 186.615 476.558 186.233 476.558 185.843C476.558 174.565 481.038 163.749 489.013 155.775C496.987 147.8 507.803 143.32 519.081 143.32C530.359 143.32 541.174 147.8 549.149 155.775C557.123 163.749 561.603 174.565 561.603 185.843Z" fill="#E4E4E4"/>
<path d="M561.603 488.421C561.603 488.812 561.595 489.194 561.586 489.575H476.576C476.567 489.194 476.558 488.812 476.558 488.421C476.558 477.144 481.038 466.328 489.013 458.353C496.987 450.379 507.803 445.899 519.081 445.899C530.359 445.899 541.174 450.379 549.149 458.353C557.123 466.328 561.603 477.144 561.603 488.421Z" fill="#E4E4E4"/>
<path d="M520.081 228.365H518.081V445.789H520.081V228.365Z" fill="#111111"/>
<path d="M273.491 467.88C273.491 485.092 266.673 501.603 254.529 513.801C242.385 525.999 225.904 532.889 208.692 532.966V402.795C225.904 402.871 242.385 409.762 254.529 421.959C266.673 434.157 273.491 450.668 273.491 467.88Z" fill="#DD4142"/>
<path d="M618.879 560H6.20679C4.5612 559.998 2.98358 559.343 1.81999 558.18C0.656409 557.016 0.00188168 555.439 0 553.793V6.207C0.00188168 4.56142 0.656409 2.98377 1.81999 1.82014C2.98358 0.65652 4.5612 0.00194001 6.20679 0H618.879C620.524 0.00194001 622.102 0.656521 623.266 1.82014C624.429 2.98377 625.084 4.56142 625.085 6.207V553.793C625.084 555.439 624.429 557.016 623.266 558.18C622.102 559.343 620.524 559.998 618.879 560V560ZM6.20679 2C5.09143 2.00127 4.02213 2.44492 3.23347 3.23362C2.44482 4.02232 2.00121 5.09165 2 6.207V553.793C2.00121 554.908 2.44482 555.978 3.23347 556.766C4.02213 557.555 5.09143 557.999 6.20679 558H618.879C619.994 557.999 621.063 557.555 621.852 556.766C622.641 555.978 623.084 554.908 623.085 553.793V6.207C623.084 5.09165 622.641 4.02233 621.852 3.23364C621.063 2.44495 619.994 2.00129 618.879 2H6.20679Z" fill="#111111"/>
<path d="M207.692 166.02V23.4268L208.696 23.4307C227.555 23.5061 245.615 31.0505 258.924 44.4122C272.232 57.774 279.704 75.8645 279.704 94.7232C279.704 113.582 272.232 131.672 258.924 145.034C245.615 158.396 227.555 165.94 208.696 166.016L207.692 166.02ZM209.692 25.4419V164.004C227.844 163.667 245.138 156.22 257.856 143.264C270.573 130.308 277.698 112.878 277.698 94.7231C277.698 76.5684 270.573 59.1388 257.856 46.1827C245.138 33.2267 227.844 25.7792 209.692 25.4419Z" fill="#111111"/>
<path d="M209.692 533.966H208.406C190.879 533.966 174.07 527.003 161.677 514.61C149.283 502.216 142.321 485.407 142.321 467.88C142.321 450.353 149.283 433.544 161.677 421.151C174.07 408.757 190.879 401.795 208.406 401.795H209.693L209.692 533.966ZM207.692 403.799C190.821 403.987 174.703 410.821 162.839 422.818C150.975 434.815 144.32 451.007 144.32 467.88C144.32 484.753 150.975 500.946 162.839 512.943C174.703 524.94 190.821 531.774 207.692 531.962V403.799Z" fill="#111111"/>
<path d="M519.081 229.365C507.724 229.426 496.799 225.021 488.661 217.1C480.522 209.18 475.823 198.378 475.576 187.024L475.549 185.997H562.613L562.586 187.024C562.339 198.378 557.639 209.18 549.501 217.101C541.363 225.021 530.437 229.426 519.081 229.365V229.365ZM477.615 187.997C478.167 198.622 482.776 208.63 490.492 215.956C498.208 223.281 508.441 227.365 519.081 227.365C529.72 227.365 539.954 223.281 547.67 215.956C555.385 208.63 559.995 198.622 560.547 187.997H477.615Z" fill="#111111"/>
<path d="M624.085 372H1V374H624.085V372Z" fill="#111111"/>
<path d="M624.085 185.997H1V187.997H624.085V185.997Z" fill="#111111"/>
<path d="M417.39 1H415.39V559H417.39V1Z" fill="#111111"/>
<path d="M209.692 1H207.692V559H209.692V1Z" fill="#111111"/>
<path d="M145.924 485.236C156.468 485.236 165.016 476.689 165.016 466.145C165.016 455.601 156.468 447.053 145.924 447.053C135.38 447.053 126.832 455.601 126.832 466.145C126.832 476.689 135.38 485.236 145.924 485.236Z" fill="#DD4142"/>
<path d="M574.42 739.984C580.049 721.847 574.581 701.22 561.743 687.436C558.123 683.541 553.904 680.249 549.247 677.682C548.932 677.51 548.567 677.457 548.216 677.531C547.866 677.604 547.553 677.801 547.334 678.084C547.115 678.368 547.004 678.721 547.022 679.079C547.039 679.437 547.184 679.777 547.429 680.038L550 682.819V680.698C545.024 685.34 535.954 681.799 535.05 675.199C534.867 673.481 535.081 671.743 535.674 670.12C536.267 668.496 537.225 667.031 538.472 665.835C539.814 664.574 541.456 663.679 543.242 663.236C545.029 662.793 546.899 662.816 548.674 663.303C550.545 663.758 552.297 664.613 553.807 665.809C555.317 667.005 556.551 668.513 557.423 670.231C559.026 673.763 559.176 677.784 557.839 681.425C555.096 689.443 546.342 693.214 538.353 691.324C530.201 689.396 524.359 681.71 524.092 673.41C524.051 669.39 525.237 665.453 527.491 662.125C529.746 658.797 532.963 656.236 536.712 654.784C545.27 651.623 554.561 654.784 561.789 659.671C569.162 664.845 575.189 671.708 579.368 679.687C583.619 687.427 586.038 696.039 586.439 704.861C586.672 712.116 585.132 720.358 579.781 725.658C578.499 726.916 577.019 727.955 575.4 728.734L576.914 731.324C586.385 725.844 594.067 717.739 599.032 707.988C603.998 698.237 606.034 687.257 604.895 676.374C604.168 669.822 602.317 663.444 599.425 657.52C598.577 655.786 595.989 657.305 596.835 659.034C601.718 669.081 603.357 680.398 601.525 691.418C600.178 699.175 597.139 706.54 592.623 712.989C588.108 719.438 582.228 724.814 575.4 728.734C573.709 729.705 575.196 732.167 576.914 731.324C584.992 727.362 588.516 718.394 589.293 709.901C590.179 700.203 587.657 690.131 583.573 681.385C579.314 672.137 572.805 664.104 564.641 658.02C556.598 652.153 545.702 648.275 535.914 651.892C527.161 655.126 520.797 663.991 521.092 673.41C521.389 682.863 527.916 691.756 537.193 694.128C546.447 696.495 556.566 692.415 560.297 683.367C562.079 679.178 562.206 674.468 560.653 670.188C559.83 668.113 558.588 666.231 557.003 664.658C555.418 663.086 553.526 661.858 551.444 661.052C549.397 660.193 547.179 659.821 544.963 659.965C542.748 660.11 540.596 660.766 538.678 661.883C536.921 663.005 535.427 664.492 534.296 666.243C533.165 667.993 532.425 669.967 532.124 672.029C531.795 674.025 531.993 676.071 532.697 677.967C533.402 679.862 534.589 681.541 536.141 682.837C537.662 684.058 539.435 684.929 541.331 685.386C543.228 685.843 545.202 685.875 547.113 685.481C548.992 685.062 550.722 684.142 552.121 682.819C552.397 682.535 552.551 682.155 552.551 681.759C552.551 681.363 552.397 680.983 552.121 680.698L549.551 677.916L547.733 680.272C563.459 688.905 573.302 706.464 573.633 724.268C573.733 729.322 573.023 734.359 571.528 739.187C570.954 741.035 573.849 741.825 574.42 739.984V739.984Z" fill="#F0F0F0"/>
</g>
<defs>
<clipPath id="clip0">
<rect width="904.886" height="742" fill="white"/>
</clipPath>
</defs>
</svg>
