<svg width="57" height="20" viewBox="0 0 57 20" fill="none" xmlns="http://www.w3.org/2000/svg">
<mask id="path-1-inside-1" fill="white">
<path fill-rule="evenodd" clip-rule="evenodd" d="M15.3586 7.71766C14.8033 6.47284 13.864 5.38557 12.5933 4.65192C12.3871 4.53287 12.1772 4.42604 11.9644 4.3312C12.7095 3.88249 13.6694 3.8416 14.4759 4.30724C15.6573 4.98931 16.0621 6.49994 15.38 7.68132C15.373 7.69352 15.3658 7.70563 15.3586 7.71766ZM15.3586 7.71766C16.2029 9.61025 16.1597 11.867 15.0442 13.799C13.1951 17.0018 9.09983 18.0991 5.89711 16.25C2.69439 14.4009 1.59705 10.3056 3.44614 7.10288C5.17619 4.10634 8.87255 2.95284 11.9644 4.3312C11.6181 4.53977 11.3183 4.83644 11.1018 5.21132C10.4198 6.3927 10.8245 7.90333 12.0059 8.5854C13.1751 9.26043 14.6668 8.87094 15.3586 7.71766Z"/>
</mask>
<path fill-rule="evenodd" clip-rule="evenodd" d="M15.3586 7.71766C14.8033 6.47284 13.864 5.38557 12.5933 4.65192C12.3871 4.53287 12.1772 4.42604 11.9644 4.3312C12.7095 3.88249 13.6694 3.8416 14.4759 4.30724C15.6573 4.98931 16.0621 6.49994 15.38 7.68132C15.373 7.69352 15.3658 7.70563 15.3586 7.71766ZM15.3586 7.71766C16.2029 9.61025 16.1597 11.867 15.0442 13.799C13.1951 17.0018 9.09983 18.0991 5.89711 16.25C2.69439 14.4009 1.59705 10.3056 3.44614 7.10288C5.17619 4.10634 8.87255 2.95284 11.9644 4.3312C11.6181 4.53977 11.3183 4.83644 11.1018 5.21132C10.4198 6.3927 10.8245 7.90333 12.0059 8.5854C13.1751 9.26043 14.6668 8.87094 15.3586 7.71766Z" fill="#DD4142"/>
<path d="M12.0933 5.51794C13.1753 6.14265 13.9731 7.06642 14.4454 8.12507L16.2719 7.31025C15.6335 5.87926 14.5527 4.62849 13.0933 3.78589L12.0933 5.51794ZM11.5573 5.24455C11.7383 5.32527 11.9172 5.41631 12.0933 5.51794L13.0933 3.78589C12.8569 3.64944 12.616 3.52682 12.3716 3.41785L11.5573 5.24455ZM12.4804 5.18783C12.9263 4.91926 13.4971 4.89681 13.9759 5.17326L14.9759 3.44121C13.8417 2.78639 12.4926 2.84572 11.4485 3.47457L12.4804 5.18783ZM13.9759 5.17326C14.679 5.57919 14.9199 6.47823 14.514 7.18132L16.246 8.18132C17.2042 6.52164 16.6356 4.39943 14.9759 3.44121L13.9759 5.17326ZM14.514 7.18132C14.5098 7.18859 14.5055 7.1959 14.5011 7.20325L16.2162 8.23207C16.2262 8.21536 16.2361 8.19844 16.246 8.18132L14.514 7.18132ZM14.4454 8.12507C15.1648 9.73767 15.1267 11.6562 14.1782 13.299L15.9102 14.299C17.1926 12.0779 17.2411 9.48283 16.2719 7.31025L14.4454 8.12507ZM14.1782 13.299C12.6052 16.0235 9.12153 16.9569 6.39711 15.384L5.39711 17.116C9.07812 19.2413 13.785 17.98 15.9102 14.299L14.1782 13.299ZM6.39711 15.384C3.67268 13.811 2.73922 10.3273 4.31217 7.60288L2.58012 6.60288C0.454885 10.2839 1.71609 14.9908 5.39711 17.116L6.39711 15.384ZM4.31217 7.60288C5.78354 5.0544 8.9281 4.07247 11.5573 5.24455L12.3716 3.41785C8.817 1.83321 4.56885 3.15829 2.58012 6.60288L4.31217 7.60288ZM11.9679 5.71132C12.0975 5.48673 12.2754 5.3113 12.4804 5.18783L11.4485 3.47457C10.9609 3.76824 10.539 4.18615 10.2358 4.71132L11.9679 5.71132ZM12.5059 7.71938C11.8028 7.31345 11.5619 6.41441 11.9679 5.71132L10.2358 4.71132C9.2776 6.371 9.84624 8.49321 11.5059 9.45143L12.5059 7.71938ZM14.5011 7.20323C14.0895 7.8893 13.2017 8.12107 12.5059 7.71938L11.5059 9.45143C13.1485 10.3998 15.244 9.85258 16.2161 8.23209L14.5011 7.20323Z" fill="white" mask="url(#path-1-inside-1)"/>
<path d="M20.792 14.108C20.176 14.108 19.616 13.968 19.112 13.688C18.616 13.408 18.224 13.012 17.936 12.5C17.656 11.98 17.516 11.38 17.516 10.7C17.516 10.028 17.66 9.436 17.948 8.924C18.244 8.404 18.644 8.008 19.148 7.736C19.652 7.456 20.216 7.316 20.84 7.316C21.464 7.316 22.028 7.456 22.532 7.736C23.036 8.008 23.432 8.4 23.72 8.912C24.016 9.424 24.164 10.02 24.164 10.7C24.164 11.38 24.012 11.98 23.708 12.5C23.412 13.012 23.008 13.408 22.496 13.688C21.984 13.968 21.416 14.108 20.792 14.108ZM20.792 13.148C21.184 13.148 21.552 13.056 21.896 12.872C22.24 12.688 22.516 12.412 22.724 12.044C22.94 11.676 23.048 11.228 23.048 10.7C23.048 10.172 22.944 9.724 22.736 9.356C22.528 8.988 22.256 8.716 21.92 8.54C21.584 8.356 21.22 8.264 20.828 8.264C20.428 8.264 20.06 8.356 19.724 8.54C19.396 8.716 19.132 8.988 18.932 9.356C18.732 9.724 18.632 10.172 18.632 10.7C18.632 11.236 18.728 11.688 18.92 12.056C19.12 12.424 19.384 12.7 19.712 12.884C20.04 13.06 20.4 13.148 20.792 13.148ZM33.5078 7.304C34.0198 7.304 34.4758 7.412 34.8758 7.628C35.2758 7.836 35.5918 8.152 35.8238 8.576C36.0558 9 36.1718 9.516 36.1718 10.124V14H35.0918V10.28C35.0918 9.624 34.9278 9.124 34.5998 8.78C34.2798 8.428 33.8438 8.252 33.2918 8.252C32.7238 8.252 32.2718 8.436 31.9358 8.804C31.5998 9.164 31.4318 9.688 31.4318 10.376V14H30.3518V10.28C30.3518 9.624 30.1878 9.124 29.8598 8.78C29.5398 8.428 29.1038 8.252 28.5518 8.252C27.9838 8.252 27.5318 8.436 27.1958 8.804C26.8598 9.164 26.6918 9.688 26.6918 10.376V14H25.5998V7.424H26.6918V8.372C26.9078 8.028 27.1958 7.764 27.5558 7.58C27.9238 7.396 28.3278 7.304 28.7678 7.304C29.3198 7.304 29.8078 7.428 30.2318 7.676C30.6558 7.924 30.9718 8.288 31.1798 8.768C31.3638 8.304 31.6678 7.944 32.0918 7.688C32.5158 7.432 32.9878 7.304 33.5078 7.304ZM38.527 6.356C38.319 6.356 38.143 6.284 37.999 6.14C37.855 5.996 37.783 5.82 37.783 5.612C37.783 5.404 37.855 5.228 37.999 5.084C38.143 4.94 38.319 4.868 38.527 4.868C38.727 4.868 38.895 4.94 39.031 5.084C39.175 5.228 39.247 5.404 39.247 5.612C39.247 5.82 39.175 5.996 39.031 6.14C38.895 6.284 38.727 6.356 38.527 6.356ZM39.055 7.424V14H37.963V7.424H39.055ZM44.1202 7.304C44.9202 7.304 45.5682 7.548 46.0642 8.036C46.5602 8.516 46.8082 9.212 46.8082 10.124V14H45.7282V10.28C45.7282 9.624 45.5642 9.124 45.2362 8.78C44.9082 8.428 44.4602 8.252 43.8922 8.252C43.3162 8.252 42.8562 8.432 42.5122 8.792C42.1762 9.152 42.0082 9.676 42.0082 10.364V14H40.9162V7.424H42.0082V8.36C42.2242 8.024 42.5162 7.764 42.8842 7.58C43.2602 7.396 43.6722 7.304 44.1202 7.304ZM49.156 6.356C48.948 6.356 48.772 6.284 48.628 6.14C48.484 5.996 48.412 5.82 48.412 5.612C48.412 5.404 48.484 5.228 48.628 5.084C48.772 4.94 48.948 4.868 49.156 4.868C49.356 4.868 49.524 4.94 49.66 5.084C49.804 5.228 49.876 5.404 49.876 5.612C49.876 5.82 49.804 5.996 49.66 6.14C49.524 6.284 49.356 6.356 49.156 6.356ZM49.684 7.424V14H48.592V7.424H49.684ZM55.2171 14L52.6371 11.096V14H51.5451V5.12H52.6371V10.34L55.1691 7.424H56.6931L53.5971 10.7L56.7051 14H55.2171Z" fill="white"/>
</svg>
