<svg width="794" height="663" viewBox="0 0 794 663" fill="none" xmlns="http://www.w3.org/2000/svg">
<g clip-path="url(#clip0)">
<path d="M251.429 -2.92004e-05L793.563 321.247L777.259 348.762L235.125 27.5149L251.429 -2.92004e-05Z" fill="#F2F2F2"/>
<path d="M133.598 26.9328L675.731 348.18L659.427 375.695L117.293 54.4477L133.598 26.9328Z" fill="#F2F2F2"/>
<path d="M29.2329 56.3907L571.367 377.638L555.062 405.153L12.9286 83.9057L29.2329 56.3907Z" fill="#F2F2F2"/>
<path d="M440.442 376.579C346.7 376.579 270.707 300.586 270.707 206.844C270.707 113.101 346.7 37.1079 440.442 37.1079C534.185 37.1079 610.178 113.101 610.178 206.844C610.178 300.586 534.185 376.579 440.442 376.579Z" fill="white"/>
<path d="M611.441 206.844C611.441 112.555 534.732 35.8455 440.443 35.8455C346.154 35.8455 269.445 112.555 269.445 206.844C269.445 301.132 346.154 377.842 440.443 377.842C534.732 377.842 611.441 301.132 611.441 206.844ZM608.916 206.844C608.916 299.74 533.339 375.317 440.443 375.317C347.546 375.317 271.969 299.74 271.969 206.844C271.969 113.947 347.546 38.3704 440.443 38.3704C533.339 38.3704 608.916 113.947 608.916 206.844H608.916Z" fill="#3F3D56"/>
<path d="M470.7 207.582C470.7 201.597 468.925 195.747 465.6 190.772C462.276 185.796 457.55 181.918 452.021 179.628C446.493 177.337 440.409 176.738 434.54 177.906C428.67 179.073 423.279 181.955 419.047 186.186C414.816 190.418 411.934 195.809 410.767 201.679C409.599 207.548 410.198 213.632 412.488 219.161C414.779 224.689 418.657 229.415 423.632 232.74C428.608 236.064 434.458 237.839 440.442 237.839C448.467 237.839 456.163 234.651 461.838 228.977C467.512 223.302 470.7 215.606 470.7 207.582V207.582ZM440.442 178.8C448.073 178.809 455.389 181.844 460.784 187.24C466.18 192.635 469.215 199.951 469.224 207.582V207.582C469.224 213.274 467.536 218.839 464.373 223.572C461.211 228.305 456.716 231.994 451.457 234.172C446.198 236.351 440.411 236.92 434.828 235.81C429.244 234.699 424.116 231.958 420.091 227.933C416.066 223.908 413.325 218.78 412.214 213.197C411.104 207.614 411.674 201.827 413.852 196.568C416.03 191.308 419.719 186.813 424.452 183.651C429.186 180.488 434.75 178.8 440.442 178.8V178.8Z" fill="#3F3D56"/>
<path d="M498.005 207.582C498.005 196.197 494.629 185.068 488.304 175.602C481.979 166.135 472.989 158.758 462.471 154.401C451.953 150.044 440.379 148.904 429.213 151.125C418.047 153.346 407.79 158.829 399.74 166.879C391.69 174.929 386.207 185.186 383.986 196.352C381.765 207.518 382.905 219.092 387.262 229.61C391.619 240.128 398.997 249.118 408.463 255.443C417.929 261.768 429.058 265.144 440.443 265.144C448.002 265.144 455.487 263.655 462.471 260.762C469.455 257.87 475.801 253.63 481.146 248.284C486.491 242.939 490.731 236.594 493.624 229.61C496.517 222.626 498.005 215.141 498.005 207.582V207.582ZM440.443 151.495C451.536 151.495 462.38 154.784 471.603 160.947C480.826 167.11 488.015 175.87 492.26 186.118C496.505 196.367 497.616 207.644 495.452 218.524C493.288 229.403 487.946 239.397 480.102 247.241C472.258 255.085 462.265 260.426 451.385 262.591C440.505 264.755 429.228 263.644 418.979 259.399C408.731 255.154 399.971 247.965 393.809 238.742C387.646 229.518 384.356 218.675 384.356 207.582C384.373 192.712 390.287 178.456 400.802 167.941C411.317 157.426 425.573 151.512 440.443 151.495Z" fill="#CCCCCC"/>
<path d="M552.616 207.582C552.616 185.396 546.037 163.708 533.711 145.261C521.385 126.815 503.866 112.437 483.369 103.947C462.872 95.4569 440.318 93.2355 418.559 97.5638C396.799 101.892 376.812 112.575 361.124 128.263C345.436 143.951 334.753 163.938 330.425 185.698C326.096 207.457 328.318 230.011 336.808 250.508C345.298 271.005 359.676 288.524 378.122 300.85C396.569 313.176 418.257 319.755 440.442 319.755C470.182 319.721 498.695 307.892 519.724 286.863C540.753 265.834 552.582 237.321 552.616 207.582V207.582ZM440.442 96.8844C462.336 96.8844 483.739 103.377 501.943 115.54C520.147 127.704 534.335 144.992 542.713 165.22C551.092 185.447 553.284 207.704 549.013 229.178C544.741 250.651 534.199 270.375 518.717 285.856C503.236 301.338 483.512 311.881 462.038 316.152C440.565 320.423 418.308 318.231 398.08 309.853C377.853 301.474 360.565 287.286 348.401 269.082C336.238 250.878 329.745 229.475 329.745 207.582C329.778 178.233 341.452 150.096 362.204 129.344C382.957 108.591 411.094 96.9176 440.442 96.8844V96.8844Z" fill="#CCCCCC"/>
<path d="M440.443 220.865C432.699 220.865 426.421 214.588 426.421 206.844C426.421 199.1 432.699 192.822 440.443 192.822C448.187 192.822 454.464 199.1 454.464 206.844C454.464 214.588 448.187 220.865 440.443 220.865Z" fill="#DD4142"/>
<path d="M476.604 261.454C468.86 261.454 462.582 255.177 462.582 247.433C462.582 239.689 468.86 233.411 476.604 233.411C484.348 233.411 490.625 239.689 490.625 247.433C490.625 255.177 484.348 261.454 476.604 261.454Z" fill="#DD4142"/>
<path d="M335.528 255.55C327.784 255.55 321.506 249.273 321.506 241.529C321.506 233.785 327.784 227.507 335.528 227.507C343.272 227.507 349.549 233.785 349.549 241.529C349.549 249.273 343.272 255.55 335.528 255.55Z" fill="#DD4142"/>
<path d="M440.443 213.485C436.774 213.485 433.801 210.512 433.801 206.844C433.801 203.175 436.774 200.202 440.443 200.202C444.111 200.202 447.084 203.175 447.084 206.844C447.084 210.512 444.111 213.485 440.443 213.485Z" fill="#2F2E41"/>
<path d="M335.528 248.171C331.859 248.171 328.886 245.197 328.886 241.529C328.886 237.861 331.859 234.887 335.528 234.887C339.196 234.887 342.169 237.861 342.169 241.529C342.169 245.197 339.196 248.171 335.528 248.171Z" fill="#2F2E41"/>
<path d="M476.604 254.812C472.936 254.812 469.962 251.839 469.962 248.171C469.962 244.502 472.936 241.529 476.604 241.529C480.272 241.529 483.246 244.502 483.246 248.171C483.246 251.839 480.272 254.812 476.604 254.812Z" fill="#2F2E41"/>
<path d="M750.395 138.949C746.727 138.949 743.753 135.976 743.753 132.307C743.753 128.639 746.727 125.666 750.395 125.666C754.063 125.666 757.037 128.639 757.037 132.307C757.037 135.976 754.063 138.949 750.395 138.949Z" fill="#DD4142"/>
<path d="M440.812 132.677H732.315V131.201H439.335V207.212H440.812V132.677Z" fill="#DD4142"/>
<path d="M769.583 132.307C769.583 128.512 768.457 124.803 766.349 121.647C764.24 118.492 761.244 116.033 757.738 114.58C754.232 113.128 750.374 112.748 746.652 113.489C742.93 114.229 739.511 116.056 736.827 118.74C734.144 121.423 732.317 124.842 731.576 128.564C730.836 132.286 731.216 136.144 732.668 139.65C734.12 143.156 736.58 146.153 739.735 148.261C742.89 150.37 746.6 151.495 750.395 151.495C752.915 151.495 755.41 150.999 757.738 150.034C760.066 149.07 762.181 147.657 763.963 145.875C765.744 144.093 767.158 141.978 768.122 139.65C769.086 137.322 769.583 134.827 769.583 132.307V132.307ZM750.395 114.596C753.898 114.596 757.322 115.635 760.235 117.581C763.148 119.527 765.418 122.293 766.758 125.53C768.099 128.766 768.45 132.327 767.766 135.763C767.083 139.198 765.396 142.354 762.919 144.831C760.442 147.308 757.286 148.995 753.85 149.679C750.415 150.362 746.853 150.011 743.617 148.671C740.381 147.33 737.615 145.06 735.668 142.147C733.722 139.235 732.683 135.81 732.683 132.307C732.689 127.612 734.557 123.11 737.877 119.789C741.197 116.469 745.699 114.601 750.395 114.596V114.596Z" fill="#2F2E41"/>
<path d="M706.116 330.087C702.448 330.087 699.474 327.113 699.474 323.445C699.474 319.777 702.448 316.803 706.116 316.803C709.784 316.803 712.758 319.777 712.758 323.445C712.758 327.113 709.784 330.087 706.116 330.087Z" fill="#DD4142"/>
<path d="M725.303 323.445C725.303 319.65 724.178 315.94 722.07 312.785C719.961 309.629 716.965 307.17 713.459 305.718C709.953 304.266 706.095 303.886 702.373 304.626C698.651 305.366 695.232 307.194 692.548 309.877C689.865 312.561 688.037 315.979 687.297 319.701C686.557 323.423 686.937 327.281 688.389 330.787C689.841 334.294 692.301 337.29 695.456 339.399C698.611 341.507 702.321 342.632 706.116 342.632C711.205 342.632 716.085 340.611 719.684 337.012C723.282 333.414 725.303 328.534 725.303 323.445V323.445ZM706.116 305.733C709.619 305.733 713.043 306.772 715.956 308.718C718.869 310.664 721.139 313.43 722.479 316.667C723.82 319.903 724.171 323.464 723.487 326.9C722.804 330.336 721.117 333.492 718.64 335.969C716.163 338.446 713.007 340.133 709.571 340.816C706.136 341.499 702.574 341.149 699.338 339.808C696.102 338.468 693.336 336.197 691.389 333.285C689.443 330.372 688.404 326.948 688.404 323.445C688.41 318.749 690.278 314.247 693.598 310.927C696.918 307.606 701.42 305.739 706.116 305.733Z" fill="#2F2E41"/>
<path d="M129.631 169.945C125.962 169.945 122.989 166.971 122.989 163.303C122.989 159.635 125.962 156.661 129.631 156.661C133.299 156.661 136.272 159.635 136.272 163.303C136.272 166.971 133.299 169.945 129.631 169.945Z" fill="#DD4142"/>
<path d="M148.818 163.303C148.818 159.508 147.693 155.798 145.585 152.643C143.476 149.487 140.48 147.028 136.974 145.576C133.468 144.124 129.61 143.744 125.888 144.484C122.165 145.224 118.747 147.052 116.063 149.735C113.38 152.419 111.552 155.837 110.812 159.559C110.072 163.281 110.452 167.139 111.904 170.646C113.356 174.152 115.815 177.148 118.971 179.257C122.126 181.365 125.836 182.49 129.631 182.49C132.151 182.49 134.646 181.994 136.974 181.03C139.302 180.065 141.417 178.652 143.198 176.87C144.98 175.089 146.394 172.973 147.358 170.646C148.322 168.318 148.818 165.823 148.818 163.303V163.303ZM129.631 145.591C134.327 145.597 138.828 147.464 142.149 150.785C145.469 154.105 147.337 158.607 147.342 163.303V163.303C147.342 166.806 146.304 170.23 144.357 173.143C142.411 176.055 139.645 178.326 136.409 179.666C133.172 181.007 129.611 181.357 126.175 180.674C122.74 179.991 119.584 178.304 117.107 175.827C114.63 173.35 112.943 170.194 112.26 166.758C111.576 163.322 111.927 159.761 113.267 156.525C114.608 153.288 116.878 150.522 119.791 148.576C122.703 146.63 126.128 145.591 129.631 145.591V145.591Z" fill="#2F2E41"/>
<path d="M336.266 165.528L148.092 162.565L148.069 164.04L334.79 166.981V241.529H336.266V165.528Z" fill="#DD4142"/>
<path d="M687.666 322.707H477.342V248.171H475.866V324.182H687.666V322.707Z" fill="#DD4142"/>
<path d="M709.806 166.993H790.984V172.159H709.806V166.993Z" fill="#CCCCCC"/>
<path d="M709.806 181.752H790.984V186.918H709.806V181.752Z" fill="#CCCCCC"/>
<path d="M709.806 196.512H790.984V201.678H709.806V196.512Z" fill="#CCCCCC"/>
<path d="M665.527 358.13H746.705V363.296H665.527V358.13Z" fill="#CCCCCC"/>
<path d="M665.527 372.89H746.705V378.055H665.527V372.89Z" fill="#CCCCCC"/>
<path d="M665.527 387.649H746.705V392.815H665.527V387.649Z" fill="#CCCCCC"/>
<path d="M89.0417 198.726H170.22V203.892H89.0417V198.726Z" fill="#CCCCCC"/>
<path d="M89.0417 213.485H170.22V218.651H89.0417V213.485Z" fill="#CCCCCC"/>
<path d="M89.0417 228.245H170.22V233.411H89.0417V228.245Z" fill="#CCCCCC"/>
<path d="M50.3971 638.861L61.9411 642.987L83.3491 600.421L66.3101 594.332L50.3971 638.861Z" fill="#FFB8B8"/>
<path d="M80.6773 662.303L80.8458 661.832C82.2141 657.989 82.0023 653.76 80.2567 650.073C78.5112 646.386 75.3744 643.542 71.5345 642.165L48.7989 634.039L43.4522 649L80.6773 662.303Z" fill="#2F2E41"/>
<path d="M125.468 650.28L137.728 650.279L143.56 602.991L125.466 602.992L125.468 650.28Z" fill="#FFB8B8"/>
<path d="M122.342 662.164L161.873 662.162V661.662C161.873 659.642 161.475 657.641 160.701 655.774C159.928 653.907 158.795 652.211 157.366 650.783C155.937 649.354 154.241 648.22 152.374 647.447C150.507 646.674 148.506 646.276 146.486 646.276H146.485L122.341 646.277L122.342 662.164Z" fill="#2F2E41"/>
<path d="M97.5283 348.17L102.86 337.635C102.86 337.635 122.723 342.611 124.528 354.123L97.5283 348.17Z" fill="#DD4142"/>
<path d="M75.5283 468.635L90.0283 549.548L51.5283 617.635L74.5283 626.635L113.528 560.635L118.528 542.635L121.528 636.635L142.271 636.005L151.782 548.232L136.528 466.635L75.5283 468.635Z" fill="#C73A3B"/>
<path d="M144.782 483.232C145.232 481.228 146.522 420.059 146.522 420.059C146.522 420.059 125.197 350.05 125.002 349.475L124.926 349.25L108.735 343.18C108.508 343.076 103.114 340.673 98.6995 342.676C97.5673 343.227 96.569 344.018 95.7744 344.995C94.9797 345.971 94.4078 347.11 94.0986 348.33C92.2622 349.698 79.0283 364.522 79.0283 384.63L78.5288 432.079L67.4338 483.52L67.9243 483.624C68.2273 483.688 81.7516 487.763 103.053 487.763C114.888 487.763 144.782 483.232 144.782 483.232Z" fill="#DD4142"/>
<path d="M119.42 334.318C107.335 334.318 97.5375 324.52 97.5375 312.435C97.5375 300.349 107.335 290.552 119.42 290.552C131.506 290.552 141.303 300.349 141.303 312.435C141.303 324.52 131.506 334.318 119.42 334.318Z" fill="#FFB8B8"/>
<path opacity="0.2" d="M88.2451 408.841L126.528 462.257L132.182 437.312L88.2451 408.841Z" fill="black"/>
<path d="M156.192 463.409C154.82 463.354 153.477 463 152.257 462.37C151.037 461.74 149.97 460.851 149.131 459.764C148.292 458.677 147.702 457.42 147.401 456.08C147.101 454.741 147.098 453.352 147.393 452.011L118.946 434.561L134.654 427.213L159.259 444.91C161.479 445.554 163.385 446.99 164.617 448.946C165.849 450.901 166.32 453.241 165.942 455.521C165.564 457.802 164.363 459.864 162.566 461.318C160.769 462.771 158.501 463.515 156.192 463.409V463.409Z" fill="#FFB8B8"/>
<path d="M136.528 427.635L146.271 434.462L138.008 449.135L126.528 439.635L136.528 427.635Z" fill="#DD4142"/>
<path d="M141.629 428.065L118.712 401.502L127.492 364.863C128.4 361.077 127.898 357.09 126.081 353.646C124.264 350.202 121.256 347.537 117.618 346.149C113.981 344.761 109.962 344.744 106.313 346.102C102.663 347.459 99.6331 350.099 97.7874 353.527L97.5878 353.898L89.4973 408.307L130.152 449.977L141.629 428.065Z" fill="#DD4142"/>
<path d="M100.781 331.434L118.944 332.086C120.051 332.126 123.056 320.177 123.449 317.699C123.76 316.085 124.647 314.64 125.946 313.633C127.245 312.626 128.865 312.126 130.506 312.226C131.865 312.355 135.294 309.815 138.832 306.807C145.548 301.097 145.199 290.372 137.821 285.547C137.619 285.415 137.421 285.294 137.227 285.186C132.572 282.58 127.127 281.705 121.794 281.639C116.959 281.578 111.987 282.187 107.727 284.475C100.09 288.578 96.0263 297.544 95.6693 306.206C95.3124 314.867 98.0891 323.337 101.24 331.413" fill="#2F2E41"/>
</g>
<defs>
<clipPath id="clip0">
<rect width="793.563" height="662.464" fill="white" transform="matrix(-1 0 0 1 793.563 0)"/>
</clipPath>
</defs>
</svg>
