<svg width="104" height="104" viewBox="0 0 104 104" fill="none" xmlns="http://www.w3.org/2000/svg">
<circle cx="52" cy="52" r="52" fill="#DD4142"/>
<path d="M74.4118 43.3529C70.8294 43.3529 68.8282 46.9106 69.6435 49.5541L60.8729 58.3494C60.1318 58.127 59.0447 58.127 58.3035 58.3494L52.0035 52.0494C52.8435 49.4058 50.8424 45.8235 47.2353 45.8235C43.6529 45.8235 41.6271 49.3811 42.4671 52.0494L31.2012 63.2906C28.5576 62.4753 25 64.4764 25 68.0588C25 70.7764 27.2235 73 29.9412 73C33.5235 73 35.5247 69.4423 34.7094 66.7988L45.9506 55.5329C46.6918 55.7553 47.7788 55.7553 48.52 55.5329L54.82 61.8329C53.98 64.4764 55.9812 68.0588 59.5882 68.0588C63.1706 68.0588 65.1965 64.5011 64.3565 61.8329L73.1518 53.0623C75.7953 53.8776 79.3529 51.8764 79.3529 48.2941C79.3529 45.5764 77.1294 43.3529 74.4118 43.3529Z" fill="white"/>
<path d="M59.5883 45.8235L61.9106 40.7094L67 38.4118L61.9106 36.1141L59.5883 31L57.3153 36.1141L52.1765 38.4118L57.3153 40.7094L59.5883 45.8235Z" fill="white"/>
<path d="M31.1765 50.7647L32.4118 45.8235L37.3529 44.5882L32.4118 43.3529L31.1765 38.4117L29.9412 43.3529L25 44.5882L29.9412 45.8235L31.1765 50.7647Z" fill="white"/>
</svg>
