<svg width="104" height="104" viewBox="0 0 104 104" fill="none" xmlns="http://www.w3.org/2000/svg">
<circle cx="52" cy="52" r="52" fill="#DD4142"/>
<path d="M31.3333 54.0833C34.175 54.0833 36.5 51.7583 36.5 48.9167C36.5 46.075 34.175 43.75 31.3333 43.75C28.4917 43.75 26.1667 46.075 26.1667 48.9167C26.1667 51.7583 28.4917 54.0833 31.3333 54.0833ZM34.2525 56.925C33.2967 56.77 32.3408 56.6667 31.3333 56.6667C28.7758 56.6667 26.3475 57.2092 24.1517 58.165C22.24 58.9917 21 60.8517 21 62.9442V67H32.625V62.8408C32.625 60.6967 33.2192 58.6817 34.2525 56.925ZM72.6667 54.0833C75.5083 54.0833 77.8333 51.7583 77.8333 48.9167C77.8333 46.075 75.5083 43.75 72.6667 43.75C69.825 43.75 67.5 46.075 67.5 48.9167C67.5 51.7583 69.825 54.0833 72.6667 54.0833ZM83 62.9442C83 60.8517 81.76 58.9917 79.8483 58.165C77.6525 57.2092 75.2242 56.6667 72.6667 56.6667C71.6592 56.6667 70.7033 56.77 69.7475 56.925C70.7808 58.6817 71.375 60.6967 71.375 62.8408V67H83V62.9442ZM62.9533 55.7625C59.9308 54.4192 56.2108 53.4375 52 53.4375C47.7892 53.4375 44.0692 54.445 41.0467 55.7625C38.2567 57.0025 36.5 59.7925 36.5 62.8408V67H67.5V62.8408C67.5 59.7925 65.7433 57.0025 62.9533 55.7625ZM41.8475 61.8333C42.08 61.2392 42.1833 60.8258 44.1983 60.0508C46.7042 59.0692 49.3392 58.6042 52 58.6042C54.6608 58.6042 57.2958 59.0692 59.8017 60.0508C61.7908 60.8258 61.8942 61.2392 62.1525 61.8333H41.8475ZM52 41.1667C53.4208 41.1667 54.5833 42.3292 54.5833 43.75C54.5833 45.1708 53.4208 46.3333 52 46.3333C50.5792 46.3333 49.4167 45.1708 49.4167 43.75C49.4167 42.3292 50.5792 41.1667 52 41.1667ZM52 36C47.7117 36 44.25 39.4617 44.25 43.75C44.25 48.0383 47.7117 51.5 52 51.5C56.2883 51.5 59.75 48.0383 59.75 43.75C59.75 39.4617 56.2883 36 52 36Z" fill="white"/>
</svg>
