<svg width="104" height="104" viewBox="0 0 104 104" fill="none" xmlns="http://www.w3.org/2000/svg">
<circle cx="52" cy="52" r="52" fill="#DD4142"/>
<path d="M37.8462 42.3077H24V36.7692H37.8462V42.3077ZM37.8462 50.6154H24V56.1538H37.8462V50.6154ZM75.48 70L64.8738 59.3938C62.6585 60.8338 60.0554 61.6923 57.2308 61.6923C49.5877 61.6923 43.3846 55.4892 43.3846 47.8462C43.3846 40.2031 49.5877 34 57.2308 34C64.8738 34 71.0769 40.2031 71.0769 47.8462C71.0769 50.6708 70.2185 53.2738 68.7785 55.4615L79.3846 66.0954L75.48 70ZM65.5385 47.8462C65.5385 43.2769 61.8 39.5385 57.2308 39.5385C52.6615 39.5385 48.9231 43.2769 48.9231 47.8462C48.9231 52.4154 52.6615 56.1538 57.2308 56.1538C61.8 56.1538 65.5385 52.4154 65.5385 47.8462ZM24 70H51.6923V64.4615H24V70Z" fill="white"/>
</svg>
