<svg width="20" height="20" viewBox="0 0 20 20" fill="none" xmlns="http://www.w3.org/2000/svg">
<mask id="path-1-inside-1" fill="white">
<path fill-rule="evenodd" clip-rule="evenodd" d="M15.3586 7.71766C14.8033 6.47284 13.864 5.38557 12.5933 4.65192C12.3871 4.53287 12.1772 4.42604 11.9644 4.3312C12.7095 3.88249 13.6694 3.8416 14.4759 4.30724C15.6573 4.98931 16.0621 6.49994 15.38 7.68132C15.373 7.69352 15.3658 7.70563 15.3586 7.71766ZM15.3586 7.71766C16.2029 9.61025 16.1597 11.867 15.0442 13.799C13.1951 17.0018 9.09983 18.0991 5.89711 16.25C2.69439 14.4009 1.59705 10.3056 3.44614 7.10288C5.17619 4.10634 8.87255 2.95284 11.9644 4.3312C11.6181 4.53977 11.3183 4.83644 11.1018 5.21132C10.4198 6.3927 10.8245 7.90333 12.0059 8.5854C13.1751 9.26043 14.6668 8.87094 15.3586 7.71766Z"/>
</mask>
<path fill-rule="evenodd" clip-rule="evenodd" d="M15.3586 7.71766C14.8033 6.47284 13.864 5.38557 12.5933 4.65192C12.3871 4.53287 12.1772 4.42604 11.9644 4.3312C12.7095 3.88249 13.6694 3.8416 14.4759 4.30724C15.6573 4.98931 16.0621 6.49994 15.38 7.68132C15.373 7.69352 15.3658 7.70563 15.3586 7.71766ZM15.3586 7.71766C16.2029 9.61025 16.1597 11.867 15.0442 13.799C13.1951 17.0018 9.09983 18.0991 5.89711 16.25C2.69439 14.4009 1.59705 10.3056 3.44614 7.10288C5.17619 4.10634 8.87255 2.95284 11.9644 4.3312C11.6181 4.53977 11.3183 4.83644 11.1018 5.21132C10.4198 6.3927 10.8245 7.90333 12.0059 8.5854C13.1751 9.26043 14.6668 8.87094 15.3586 7.71766Z" fill="#DD4142"/>
<path d="M12.0933 5.51794C13.1753 6.14265 13.9731 7.06642 14.4454 8.12507L16.2719 7.31025C15.6335 5.87926 14.5527 4.62849 13.0933 3.78589L12.0933 5.51794ZM11.5573 5.24455C11.7383 5.32527 11.9172 5.41631 12.0933 5.51794L13.0933 3.78589C12.8569 3.64944 12.616 3.52682 12.3716 3.41785L11.5573 5.24455ZM12.4804 5.18783C12.9263 4.91926 13.4971 4.89681 13.9759 5.17326L14.9759 3.44121C13.8417 2.78639 12.4926 2.84572 11.4485 3.47457L12.4804 5.18783ZM13.9759 5.17326C14.679 5.57919 14.9199 6.47823 14.514 7.18132L16.246 8.18132C17.2042 6.52164 16.6356 4.39943 14.9759 3.44121L13.9759 5.17326ZM14.514 7.18132C14.5098 7.18859 14.5055 7.1959 14.5011 7.20325L16.2162 8.23207C16.2262 8.21536 16.2361 8.19844 16.246 8.18132L14.514 7.18132ZM14.4454 8.12507C15.1648 9.73767 15.1267 11.6562 14.1782 13.299L15.9102 14.299C17.1926 12.0779 17.2411 9.48283 16.2719 7.31025L14.4454 8.12507ZM14.1782 13.299C12.6052 16.0235 9.12153 16.9569 6.39711 15.384L5.39711 17.116C9.07812 19.2413 13.785 17.98 15.9102 14.299L14.1782 13.299ZM6.39711 15.384C3.67268 13.811 2.73922 10.3273 4.31217 7.60288L2.58012 6.60288C0.454885 10.2839 1.71609 14.9908 5.39711 17.116L6.39711 15.384ZM4.31217 7.60288C5.78354 5.0544 8.9281 4.07247 11.5573 5.24455L12.3716 3.41785C8.817 1.83321 4.56885 3.15829 2.58012 6.60288L4.31217 7.60288ZM11.9679 5.71132C12.0975 5.48673 12.2754 5.3113 12.4804 5.18783L11.4485 3.47457C10.9609 3.76824 10.539 4.18615 10.2358 4.71132L11.9679 5.71132ZM12.5059 7.71938C11.8028 7.31345 11.5619 6.41441 11.9679 5.71132L10.2358 4.71132C9.2776 6.371 9.84624 8.49321 11.5059 9.45143L12.5059 7.71938ZM14.5011 7.20323C14.0895 7.8893 13.2017 8.12107 12.5059 7.71938L11.5059 9.45143C13.1485 10.3998 15.244 9.85258 16.2161 8.23209L14.5011 7.20323Z" fill="white" mask="url(#path-1-inside-1)"/>
</svg>
